<svg xmlns="http://www.w3.org/2000/svg" width="80" height="80" viewBox="0 0 80 80"><defs><style>.a{fill:#fff;opacity:0.798;}.b{fill:#30cfce;}.c{fill:#25a8a8;}.d{fill:#e1ebf0;}.e{fill:#b4d2d7;}.f{fill:#87a0af;}.g{fill:#fff5f5;}.h{fill:#efe2dd;}.i{fill:#cdbfba;}</style></defs><g transform="translate(-644 -2948)"><circle class="a" cx="40" cy="40" r="40" transform="translate(644 2948)"/><g transform="translate(662 2967)"><path class="b" d="M119.963,14.491a14.511,14.511,0,0,1-6.086,11.8,4.068,4.068,0,0,0-1.818,3.32V30.3H98.885v-.87a3.816,3.816,0,0,0-1.739-3.082,14.49,14.49,0,1,1,22.817-11.856Zm0,0" transform="translate(-82.989)"/><path class="c" d="M270.491,14.491a14.511,14.511,0,0,1-6.086,11.8,4.068,4.068,0,0,0-1.818,3.32V30.3H256V0A14.471,14.471,0,0,1,270.491,14.491Zm0,0" transform="translate(-233.517)"/><path class="c" d="M421.386,34.884a1.317,1.317,0,0,1,0-1.863l2.635-2.635a1.317,1.317,0,0,1,1.863,1.863l-2.635,2.635A1.317,1.317,0,0,1,421.386,34.884Zm0,0" transform="translate(-384.025 -27.365)"/><path class="c" d="M34.021,34.884l-2.635-2.635a1.317,1.317,0,0,1,1.863-1.863l2.635,2.635a1.317,1.317,0,0,1-1.863,1.863Zm0,0" transform="translate(-28.277 -27.365)"/><path class="c" d="M424.021,244.884l-2.635-2.635a1.317,1.317,0,1,1,1.863-1.863l2.635,2.635a1.317,1.317,0,0,1-1.863,1.863Zm0,0" transform="translate(-384.025 -218.922)"/><path class="c" d="M31.386,244.884a1.317,1.317,0,0,1,0-1.863l2.635-2.635a1.317,1.317,0,0,1,1.863,1.863l-2.635,2.635A1.317,1.317,0,0,1,31.386,244.884Zm0,0" transform="translate(-28.277 -218.922)"/><path class="c" d="M4.04,152.635H1.317a1.317,1.317,0,0,1,0-2.635H4.04a1.317,1.317,0,0,1,0,2.635Zm0,0" transform="translate(0 -136.826)"/><path class="c" d="M455.04,152.635h-2.723a1.317,1.317,0,0,1,0-2.635h2.723a1.317,1.317,0,0,1,0,2.635Zm0,0" transform="translate(-411.391 -136.826)"/><path class="d" d="M194.174,391.317a6.587,6.587,0,0,1-13.174,0L187.587,390Zm0,0" transform="translate(-165.104 -355.748)"/><path class="e" d="M262.587,391.317A6.589,6.589,0,0,1,256,397.9V390Zm0,0" transform="translate(-233.517 -355.748)"/><path class="e" d="M181,345h13.174v5.27H181Zm0,0" transform="translate(-165.104 -314.7)"/><path class="f" d="M256,345h6.587v5.27H256Zm0,0" transform="translate(-233.517 -314.7)"/><path class="d" d="M169.443,331.317a1.3,1.3,0,0,1-1.317,1.317H152.317a1.317,1.317,0,0,1,0-2.635h15.809A1.3,1.3,0,0,1,169.443,331.317Zm0,0" transform="translate(-137.738 -301.018)"/><path class="e" d="M265.222,331.317a1.3,1.3,0,0,1-1.317,1.317H256V330h7.9A1.3,1.3,0,0,1,265.222,331.317Zm0,0" transform="translate(-233.517 -301.018)"/><path class="g" d="M169.939,96.587,160.77,97.9,151.6,96.587a1.411,1.411,0,0,1,.079-.58l2.635-5.27A1.349,1.349,0,0,1,155.5,90H166.04a1.349,1.349,0,0,1,1.186.738l2.635,5.27A1.411,1.411,0,0,1,169.939,96.587Zm0,0" transform="translate(-138.287 -82.096)"/><path class="h" d="M265.169,96.587,256,97.9V90h5.27a1.349,1.349,0,0,1,1.186.738l2.635,5.27A1.411,1.411,0,0,1,265.169,96.587Zm0,0" transform="translate(-233.517 -82.096)"/><path class="h" d="M169.939,165a1.19,1.19,0,0,1-.342.922l-7.9,7.9a1.274,1.274,0,0,1-1.844,0l-7.9-7.9A1.19,1.19,0,0,1,151.6,165Zm0,0" transform="translate(-138.287 -150.509)"/><path class="i" d="M265.169,165a1.19,1.19,0,0,1-.342.922l-7.9,7.9a1.236,1.236,0,0,1-.922.4V165Zm0,0" transform="translate(-233.517 -150.509)"/></g></g></svg>