<svg xmlns="http://www.w3.org/2000/svg" xmlns:xlink="http://www.w3.org/1999/xlink" width="285.637" height="262.234" viewBox="0 0 285.637 262.234"><defs><style>.a{fill:#fff;}.b{fill:#efce4a;}.c{fill:#ebba16;}.d{filter:url(#a);}</style><filter id="a" x="0" y="26.593" width="275.717" height="235.642" filterUnits="userSpaceOnUse"><feOffset dy="24" input="SourceAlpha"/><feGaussianBlur stdDeviation="12" result="b"/><feFlood flood-opacity="0.161"/><feComposite operator="in" in2="b"/><feComposite in="SourceGraphic"/></filter></defs><g transform="translate(35.792)"><g class="d" transform="matrix(1, 0, 0, 1, -35.79, 0)"><rect class="a" width="203.717" height="163.642" rx="10" transform="translate(36 38.59)"/></g><path class="b" d="M199.549,155.038H6.742a6.738,6.738,0,0,1-6.5-8.5L44.029,26.48a6.736,6.736,0,0,1,6.5-4.98H243.34c4.437,0,6.5,4.239,6.5,8.5L206.053,150.058A6.736,6.736,0,0,1,199.549,155.038Z" transform="translate(0 47.423)"/><g transform="translate(0.001 0)"><path class="c" d="M216.538,35.654H107.692L86.153,5.5H7.461A7.461,7.461,0,0,0,0,12.961V197.019c.3.009.594.026.883.043L44.024,79.4a6.731,6.731,0,0,1,6.5-4.98H224V43.115A7.461,7.461,0,0,0,216.538,35.654Z" transform="translate(0 -5.5)"/></g></g></svg>