<svg xmlns="http://www.w3.org/2000/svg" xmlns:xlink="http://www.w3.org/1999/xlink" width="376.02" height="292.152" viewBox="0 0 376.02 292.152"><defs><style>.a{fill:#fff;}.b{fill:#30cfce;}.c{opacity:0.51;}.d{filter:url(#a);}</style><filter id="a" x="0" y="0" width="376.02" height="292.152" filterUnits="userSpaceOnUse"><feOffset dy="24" input="SourceAlpha"/><feGaussianBlur stdDeviation="12" result="b"/><feFlood flood-opacity="0.161"/><feComposite operator="in" in2="b"/><feComposite in="SourceGraphic"/></filter></defs><g transform="translate(36 12)"><g class="d" transform="matrix(1, 0, 0, 1, -36, -12)"><path class="a" d="M287.157,228.152H16.863A16.861,16.861,0,0,1,0,211.29V24.863A16.861,16.861,0,0,1,16.863,8H287.157A16.861,16.861,0,0,1,304.02,24.863V211.29A16.861,16.861,0,0,1,287.157,228.152Z" transform="translate(36 4)"/></g><path class="b" d="M89.843,121.635,70.1,111.55a4.029,4.029,0,0,1-2.2-3.585v-6.044c10.132-4.366,15.956-12.847,18.792-23.457a10.487,10.487,0,0,0,7.417-9.97V63.252a10.471,10.471,0,0,0-5.651-9.241C86.147,34.3,73.116,26.319,52.176,26.319c-.991,0-1.966.037-2.92.115-7.118.566-14.32-.771-20.244-4.765A26.26,26.26,0,0,1,23.021,16.4a1.046,1.046,0,0,0-1.871.76c.21,1.835.524,3.973.985,6.311,1.73,8.7.7,7.433-2.668,15.641A54.145,54.145,0,0,0,15.85,54.022a10.5,10.5,0,0,0-5.609,9.231v5.242a10.487,10.487,0,0,0,7.417,9.97c2.836,10.6,8.654,19.09,18.792,23.457v6a4.032,4.032,0,0,1-2.249,3.617L13.963,121.5A17.194,17.194,0,0,0,5,136.6v6.945c0,5.923,21.119,8.817,47.176,8.817s47.175-2.893,47.175-8.817v-6.526A17.2,17.2,0,0,0,89.843,121.635Z" transform="translate(21.209 25.857)"/><g class="c" transform="translate(146.768 62.901)"><path class="b" d="M33.242,30.483H85.659a5.242,5.242,0,0,0,0-10.483H33.242a5.242,5.242,0,0,0,0,10.483Z" transform="translate(-28 -20)"/><path class="b" d="M47.242,30.483h5.242a5.242,5.242,0,0,0,0-10.483H47.242a5.242,5.242,0,0,0,0,10.483Z" transform="translate(31.384 -20)"/><path class="b" d="M38.483,37H33.242a5.242,5.242,0,0,0,0,10.483h5.242a5.242,5.242,0,1,0,0-10.483Z" transform="translate(-28 52.109)"/><path class="b" d="M48.725,37H38.242a5.242,5.242,0,0,0,0,10.483H48.725a5.242,5.242,0,0,0,0-10.483Z" transform="translate(-6.791 52.109)"/><path class="b" d="M49.483,37H44.242a5.242,5.242,0,0,0,0,10.483h5.242a5.242,5.242,0,0,0,0-10.483Z" transform="translate(18.659 52.109)"/><path class="b" d="M59.725,37H49.242a5.242,5.242,0,0,0,0,10.483H59.725a5.242,5.242,0,1,0,0-10.483Z" transform="translate(39.868 52.109)"/><path class="b" d="M51.52,38.467a5.242,5.242,0,1,0,7.443,0A5.477,5.477,0,0,0,51.52,38.467Z" transform="translate(65.318 52.162)"/><path class="b" d="M33.242,36.483H148.56a5.242,5.242,0,0,0,0-10.483H33.242a5.242,5.242,0,0,0,0,10.483Z" transform="translate(-28 5.45)"/><path class="b" d="M148.56,32H33.242a5.242,5.242,0,0,0,0,10.483H148.56a5.242,5.242,0,0,0,0-10.483Z" transform="translate(-28 30.901)"/></g></g></svg>