<svg xmlns="http://www.w3.org/2000/svg" width="23.717" height="23.717" viewBox="0 0 23.717 23.717"><defs><style>.a{fill:#324148;}</style></defs><path class="a" d="M16.306,0H7.412A7.412,7.412,0,0,0,0,7.412v8.894a7.412,7.412,0,0,0,7.412,7.412h8.894a7.412,7.412,0,0,0,7.412-7.412V7.412A7.412,7.412,0,0,0,16.306,0Zm5.188,16.306a5.194,5.194,0,0,1-5.188,5.188H7.412a5.194,5.194,0,0,1-5.188-5.188V7.412A5.194,5.194,0,0,1,7.412,2.223h8.894a5.194,5.194,0,0,1,5.188,5.188Z"/><g transform="translate(5.929 5.929)"><path class="a" d="M133.929,128a5.929,5.929,0,1,0,5.929,5.929A5.93,5.93,0,0,0,133.929,128Zm0,9.635a3.706,3.706,0,1,1,3.706-3.706A3.711,3.711,0,0,1,133.929,137.635Z" transform="translate(-128 -128)"/></g><g transform="translate(17.443 4.695)"><circle class="a" cx="0.79" cy="0.79" r="0.79"/></g></svg>