<svg xmlns="http://www.w3.org/2000/svg" width="23.553" height="23.553" viewBox="0 0 23.553 23.553"><defs><style>.a{fill:#fff;}</style></defs><path class="a" d="M21.81,0H1.745A1.719,1.719,0,0,0,0,1.689v20.18a1.717,1.717,0,0,0,1.745,1.684H21.809a1.715,1.715,0,0,0,1.744-1.684V1.689A1.717,1.717,0,0,0,21.81,0ZM7.142,19.714H3.585V9.083H7.142V19.714ZM5.361,7.633H5.338a1.845,1.845,0,1,1,.046-3.678,1.846,1.846,0,1,1-.023,3.678ZM19.968,19.714H16.417V14.028c0-1.429-.522-2.411-1.81-2.411a1.93,1.93,0,0,0-1.82,1.3,2.352,2.352,0,0,0-.118.857v5.937H9.11s.045-9.636,0-10.631h3.559v1.507a3.523,3.523,0,0,1,3.2-1.759c2.343,0,4.1,1.52,4.1,4.786Zm-7.32-9.089a.066.066,0,0,1,.021-.033v.033Z"/></svg>