<svg xmlns="http://www.w3.org/2000/svg" width="22.718" height="17.85" viewBox="0 0 22.718 17.85"><defs><style>.a{fill:#fff;}</style></defs><g transform="translate(0 -54.82)"><g transform="translate(0 54.82)"><path class="a" d="M2.18,60.322q.431.3,2.6,1.807T8.1,64.442q.127.089.539.387t.685.482q.273.184.659.412a3.825,3.825,0,0,0,.729.342,2.008,2.008,0,0,0,.634.114h.026a2.01,2.01,0,0,0,.634-.114,3.829,3.829,0,0,0,.729-.342q.387-.228.659-.412t.685-.482q.412-.3.539-.387l5.933-4.12A6.022,6.022,0,0,0,22.1,58.762a3.348,3.348,0,0,0,.621-1.914,2.046,2.046,0,0,0-2.028-2.028H2.028a1.81,1.81,0,0,0-1.5.659A2.559,2.559,0,0,0,0,57.127a2.961,2.961,0,0,0,.7,1.731A6.292,6.292,0,0,0,2.18,60.322Z" transform="translate(0 -54.82)"/><path class="a" d="M21.45,185.54q-4.158,2.814-6.313,4.374-.723.532-1.173.83a7.236,7.236,0,0,1-1.2.608,3.648,3.648,0,0,1-1.394.311h-.026a3.649,3.649,0,0,1-1.394-.311,7.24,7.24,0,0,1-1.2-.608q-.45-.3-1.173-.83-1.712-1.255-6.3-4.374A6.714,6.714,0,0,1,0,184.437V194.5a1.953,1.953,0,0,0,.6,1.433,1.953,1.953,0,0,0,1.433.6H20.689a2.035,2.035,0,0,0,2.028-2.029V184.437A6.991,6.991,0,0,1,21.45,185.54Z" transform="translate(0 -178.682)"/></g></g></svg>