<svg xmlns="http://www.w3.org/2000/svg" width="19.284" height="19.271" viewBox="0 0 19.284 19.271"><defs><style>.a{fill:#fff;}</style></defs><g transform="translate(0 -0.188)"><g transform="translate(0 0.188)"><path class="a" d="M19.274,15.4a.932.932,0,0,1-.286.817l-2.715,2.695a1.528,1.528,0,0,1-.48.347,1.982,1.982,0,0,1-.582.184q-.02,0-.123.01t-.265.01a9.411,9.411,0,0,1-1.256-.133,9.535,9.535,0,0,1-2.123-.653A17.821,17.821,0,0,1,8.6,17.111a21.232,21.232,0,0,1-3.389-2.858,22.37,22.37,0,0,1-2.368-2.695A19.2,19.2,0,0,1,1.33,9.18,12.809,12.809,0,0,1,.473,7.2,10.506,10.506,0,0,1,.085,5.669,5.056,5.056,0,0,1,0,4.659q.02-.367.02-.408a1.984,1.984,0,0,1,.184-.582,1.53,1.53,0,0,1,.347-.48L3.27.474A.9.9,0,0,1,3.923.188a.762.762,0,0,1,.47.153,1.419,1.419,0,0,1,.347.378L6.924,4.863a.993.993,0,0,1,.1.714,1.272,1.272,0,0,1-.347.653l-1,1a.34.34,0,0,0-.071.133.5.5,0,0,0-.031.153,3.686,3.686,0,0,0,.367.98A8.995,8.995,0,0,0,6.7,9.691a13.26,13.26,0,0,0,1.449,1.623,13.522,13.522,0,0,0,1.633,1.46,9.431,9.431,0,0,0,1.194.765,3.174,3.174,0,0,0,.735.3l.255.051a.487.487,0,0,0,.133-.031.341.341,0,0,0,.133-.071L13.4,12.6a1.251,1.251,0,0,1,.857-.327,1.067,1.067,0,0,1,.551.122h.02l3.94,2.327A1.027,1.027,0,0,1,19.274,15.4Z" transform="translate(0 -0.188)"/></g></g></svg>