<svg xmlns="http://www.w3.org/2000/svg" width="23.717" height="23.717" viewBox="0 0 23.717 23.717"><defs><style>.a{fill:#fff;}</style></defs><path class="a" d="M19.27,0H4.447A4.447,4.447,0,0,0,0,4.447V19.27a4.447,4.447,0,0,0,4.447,4.447H19.27a4.447,4.447,0,0,0,4.447-4.447V4.447A4.447,4.447,0,0,0,19.27,0ZM17.758,9.2l.009.378a8.3,8.3,0,0,1-12.782,7,6,6,0,0,0,.7.041,5.859,5.859,0,0,0,3.626-1.25A2.924,2.924,0,0,1,6.58,13.334a3.047,3.047,0,0,0,.55.05,2.919,2.919,0,0,0,.769-.1,2.923,2.923,0,0,1-2.342-2.862v-.037a2.915,2.915,0,0,0,1.322.366,2.924,2.924,0,0,1-.9-3.9A8.286,8.286,0,0,0,11.993,9.9,2.922,2.922,0,0,1,16.97,7.241a5.912,5.912,0,0,0,1.854-.709A2.927,2.927,0,0,1,17.54,8.148a5.853,5.853,0,0,0,1.677-.46A5.9,5.9,0,0,1,17.758,9.2Z"/></svg>